<?xml version="1.0" encoding="UTF-8"?>
<svg id="Layer_1" xmlns="http://www.w3.org/2000/svg" version="1.1" viewBox="0 0 75.9 76.85">
  <!-- Generator: Adobe Illustrator 30.1.0, SVG Export Plug-In . SVG Version: 2.1.1 Build 136)  -->
  <defs>
    <style>
      .st0 {
        fill: #0f928d;
      }

      .st1 {
        fill: #fff;
      }
    </style>
  </defs>
  <path class="st0" d="M50.04,43l-.64,1.26c-1.75,3.44-5.05,5.82-8.85,6.37-3.12.46-6.24-.33-8.78-2.23-2.54-1.89-4.19-4.65-4.64-7.78-.46-3.12.33-6.24,2.23-8.78,1.89-2.54,4.65-4.19,7.78-4.64,4.79-.69,9.48,1.56,11.93,5.75l.71,1.22,5.21-3.04-.72-1.23c-3.7-6.33-10.77-9.74-18.01-8.68-4.72.69-8.88,3.18-11.74,7.01s-4.05,8.54-3.36,13.25c1.3,8.88,8.95,15.29,17.67,15.29.86,0,1.72-.06,2.59-.19,5.73-.84,10.72-4.43,13.35-9.62l.64-1.27-5.38-2.72v.03Z"/>
  <circle class="st0" cx="51.57" cy="7.09" r="7.09"/>
  <path class="st1" d="M65.44,12.67l-.48-.51-4.46,4.12.5.52c6.48,6.8,9.63,16.02,8.66,25.3-1.32,12.55-9.96,23.15-22.01,27.02l-.5.16,1.67,5.85.68-.22c14.35-4.6,24.63-17.23,26.2-32.18,1.16-11.02-2.58-21.99-10.26-30.08v.02Z"/>
  <path class="st1" d="M37.95,7.03h.71V.95h-.71C17.02.95,0,17.98,0,38.9s17.02,37.95,37.95,37.95h.71v-6.08h-.71c-16.12,0-29.87-12.37-31.66-28.31h8.75v-7.09H6.28c1.77-15.96,15.53-28.34,31.67-28.34Z"/>
</svg>